<?xml version="1.0" encoding="UTF-8"?>
<svg id="Layer_1" xmlns="http://www.w3.org/2000/svg" version="1.1" viewBox="0 0 512 512">
  <!-- Generator: Adobe Illustrator 29.7.1, SVG Export Plug-In . SVG Version: 2.1.1 Build 8)  -->
  <defs>
    <style>
      .st0 {
        fill: #5f9ea0;
      }

      .st1 {
        fill: #ea607f;
      }
    </style>
  </defs>
  <path class="st0" d="M501.76,140.39c-4.39,0-7.93-3.53-7.93-7.93v-58.47c0-6.57-5.32-11.89-11.89-11.89H30.06c-6.57,0-11.89,5.32-11.89,11.89v58.47c0,4.39-3.53,7.93-7.93,7.93s-7.93-3.53-7.93-7.93v-58.47c0-15.29,12.45-27.75,27.75-27.75h451.88c15.29,0,27.75,12.45,27.75,27.75v58.47c0,4.39-3.53,7.93-7.93,7.93Z"/>
  <path class="st0" d="M481.94,465.75H30.06c-15.29,0-27.75-12.45-27.75-27.75V132.46c0-4.39,3.53-7.93,7.93-7.93h491.52c4.39,0,7.93,3.53,7.93,7.93v305.55c0,15.29-12.45,27.75-27.75,27.75ZM18.17,140.39v297.62c0,6.57,5.32,11.89,11.89,11.89h451.88c6.57,0,11.89-5.32,11.89-11.89V140.39H18.17Z"/>
  <g>
    <path class="st0" d="M72.01,104.88c-6.38,0-11.56-5.19-11.56-11.56s5.19-11.56,11.56-11.56,11.56,5.19,11.56,11.56-5.19,11.56-11.56,11.56Z"/>
    <path class="st0" d="M117.59,104.88c-6.38,0-11.56-5.19-11.56-11.56s5.19-11.56,11.56-11.56,11.56,5.19,11.56,11.56-5.19,11.56-11.56,11.56Z"/>
    <path class="st0" d="M163.18,104.88c-6.38,0-11.56-5.19-11.56-11.56s5.19-11.56,11.56-11.56,11.56,5.19,11.56,11.56-5.19,11.56-11.56,11.56Z"/>
  </g>
  <g>
    <path class="st1" d="M149.5,372.84c-4.39,0-7.93-3.53-7.93-7.93v-31.55h-63.92c-2.97,0-5.68-1.65-7.07-4.29-1.35-2.64-1.12-5.81.63-8.26l71.85-100.05c2.01-2.81,5.58-3.96,8.85-2.91s5.48,4.1,5.48,7.53v92.13h17.11c4.39,0,7.93,3.53,7.93,7.93s-3.53,7.93-7.93,7.93h-17.11v31.55c.03,4.39-3.5,7.93-7.89,7.93ZM93.12,317.51h48.46v-67.48l-48.46,67.48Z"/>
    <path class="st1" d="M409.3,372.84c-4.39,0-7.93-3.53-7.93-7.93v-31.55h-63.92c-2.97,0-5.68-1.65-7.07-4.29-1.35-2.64-1.12-5.81.63-8.26l71.85-100.05c2.01-2.81,5.58-3.96,8.85-2.91s5.48,4.1,5.48,7.53v92.13h17.11c4.39,0,7.93,3.53,7.93,7.93s-3.53,7.93-7.93,7.93h-17.11v31.55c.03,4.39-3.53,7.93-7.89,7.93ZM352.92,317.51h48.46v-67.48l-48.46,67.48Z"/>
    <path class="st1" d="M256,372.84c-26.26,0-47.6-21.34-47.6-47.6v-60.18c0-26.26,21.34-47.6,47.6-47.6s47.6,21.34,47.6,47.6v60.18c0,26.26-21.34,47.6-47.6,47.6ZM256,233.31c-17.51,0-31.74,14.24-31.74,31.74v60.18c0,17.51,14.24,31.74,31.74,31.74s31.74-14.24,31.74-31.74v-60.18c0-17.51-14.24-31.74-31.74-31.74h0Z"/>
  </g>
</svg>